<?xml version="1.0" encoding="utf-8"?>
<!-- Generator: Adobe Illustrator 24.0.1, SVG Export Plug-In . SVG Version: 6.00 Build 0)  -->
<svg version="1.1" id="Layer_1" xmlns="http://www.w3.org/2000/svg" xmlns:xlink="http://www.w3.org/1999/xlink" x="0px" y="0px"
	 viewBox="0 0 612 792" style="enable-background:new 0 0 612 792;" xml:space="preserve">
<style type="text/css">
	.st0{fill:#5D917A;}
	.st1{fill:#E0E1E2;}
	.st2{fill:#36713E;}
	.st3{fill:#006838;}
	.st4{fill:#58595B;}
	.st5{fill:#B9BBBD;}
	.st6{stroke:#000000;stroke-width:0.25;stroke-miterlimit:10;}
</style>
<polyline class="st0" points="161.7,234 144.4,264.3 131.4,286 137.9,301.2 125.9,301.2 121.6,310.9 108.6,310.9 116.2,321.8 
	140,321.8 135.1,332.6 127,343.5 97.7,355.4 110.8,363 129.7,368.4 129.7,380.3 90.2,390.1 102.1,396.6 96.7,409.6 106.4,409.6 
	109.7,420.4 90.2,426.9 104.2,436.7 90.2,446.4 64.1,453 81.5,462.7 64.1,483.3 99.9,483.3 96.7,496.3 226.8,496.3 223.5,483.3 
	259.3,483.3 241.9,462.7 259.3,453 233.2,446.4 219.2,436.7 233.2,426.9 213.7,420.4 217,409.6 226.8,409.6 221.3,396.6 
	233.2,390.1 193.7,380.3 193.7,368.4 212.6,363 225.7,355.4 196.4,343.5 188.3,332.6 183.4,321.8 207.2,321.8 214.8,310.9 
	201.8,310.9 197.5,301.2 185.6,301.2 192.1,286 179.1,264.3 161.7,234 "/>
<circle class="st1" cx="341.8" cy="396.1" r="128"/>
<polyline class="st2" points="217.5,306.1 201.3,334.5 189.1,354.8 195.2,369 184,369 180,378.2 167.8,378.2 174.9,388.3 
	197.2,388.3 192.7,398.5 185.1,408.6 157.6,419.8 169.8,426.9 187.6,432 187.6,443.1 150.6,452.3 161.7,458.4 156.6,470.5 
	165.8,470.5 168.8,480.7 150.6,486.8 163.7,495.9 150.6,505 126.2,511.1 142.4,520.3 126.2,539.6 159.7,539.6 156.6,551.7 
	278.4,551.7 275.4,539.6 308.9,539.6 292.6,520.3 308.9,511.1 284.5,505 271.3,495.9 284.5,486.8 266.2,480.7 269.3,470.5 
	278.4,470.5 273.4,458.4 284.5,452.3 247.5,443.1 247.5,432 265.2,426.9 277.4,419.8 250,408.6 242.4,398.5 237.8,388.3 
	260.2,388.3 267.3,378.2 255.1,378.2 251,369 239.9,369 245.9,354.8 233.8,334.5 217.5,306.1 "/>
<polyline class="st3" points="103.4,365.1 89.1,390.2 78.3,408.1 83.7,420.7 73.8,420.7 70.2,428.8 59.5,428.8 65.8,437.7 
	85.5,437.7 81.4,446.7 74.7,455.6 50.5,465.5 61.3,471.8 76.9,476.3 76.9,486.1 44.2,494.2 54.1,499.6 49.6,510.3 57.7,510.3 
	60.4,519.3 44.2,524.7 55.9,532.7 44.2,540.8 22.7,546.2 37.1,554.2 22.7,571.2 52.3,571.2 49.6,582 157.2,582 154.5,571.2 
	184,571.2 169.7,554.2 184,546.2 162.5,540.8 150.9,532.7 162.5,524.7 146.4,519.3 149.1,510.3 157.2,510.3 152.7,499.6 
	162.5,494.2 129.8,486.1 129.8,476.3 145.5,471.8 156.3,465.5 132.1,455.6 125.3,446.7 121.3,437.7 141,437.7 147.3,428.8 
	136.5,428.8 133,420.7 123.1,420.7 128.5,408.1 117.7,390.2 103.4,365.1 "/>
<path class="st4" d="M528.3,654.5c0.3-2.2,4-9.1,4.6-11c0.8-2.7,3.3-2.4,4.6-5.2c1.2-2.6-0.6-3.7,0.8-6.6c0.9-2,1.8-1.7,2.8-3.8
	c1.3-2.8-0.1-4,1.3-5.6c1.2-1.5,2.5-0.9,4.2-2.7c0.4-0.5,1.5-1.5,1.7-3.1c0.3-1.8-0.8-2.3-0.8-4.2c-0.1-1.8,0.8-2,1.7-4.7
	c0.9-3-0.1-3.3,0.8-6.9c0.6-2.6,1.3-2.9,1.2-4.7c-0.1-2-0.9-2.2-1.2-4.1c-0.4-2.8,1.3-3.2,1.7-6.7c0.5-3.8-1.4-5-0.2-7
	s3.4-1.4,4.3-3.3c0.9-1.8-0.8-2.9-0.5-6.1c0.2-2.6,1.4-2.6,1.8-5.2c0.4-2.8-0.8-5.1-1.8-7c-1.2-2.5-2.4-4.8-5.1-6.1
	c-2.4-1.2-4.7-0.9-5.3-2.3c-0.5-1.1,0.4-2.3-0.2-2.8c-0.6-0.5-1.5,0.3-2.8,0c-1.5-0.4-1.4-1.9-2.8-3c-2.5-2-5.8,0.5-8.1-1.4
	c-1.5-1.2-0.7-2.6-2.3-3.8c-1.4-1-3-0.7-5.1-0.7c-2.3,0-5.3-0.7-11.2-2.1c-6-1.5-4.9-1.8-8.4-2.3c-4.4-0.7-7.3-0.4-8.4-2.1
	c-0.9-1.3,0-2.8-1-3.5s-2.1,0.4-3.9,0c-2.8-0.5-5.1-4-4.4-6c0.3-0.9,1.4-1.8,1-2.3c-0.1-0.2-0.3-0.2-0.4-0.2
	c-1.7-0.5-4.4-3.7-7.4-3.8c-2.6-0.1-3.9,2.3-5.1,1.7c-0.6-0.3-0.5-1.2-0.8-4c-0.3-2.9-0.4-4.3-1-5.2c-0.8-1.2-2.2-1.7-6.1-2.4
	c-6.4-1.1-6.9-0.5-12.7-1.4c-2-0.3-4.7-0.8-8.5-0.9c-1.1,0-1.9,0-2.1,0c-2.3,0-5.3,0.1-8.6,0.9c-1.9,0.5-3,1-5.7,1.5
	c-1.8,0.3-2.2,0.2-2.5,0c-1.4-1,1.5-4.9,1.9-8.7c0.7-6.3-5.4-13.8-12.2-16.3c0,0-6.8-2.5-20.3,0h-0.1l0.9-0.2c0-0.3-53.3,3.7-57.7,4
	c-0.1,0-0.5,0-1.1,0.1c-0.2,0-3.2,0.3-6,0.6c-0.5,0.1-1.5,0.2-2.7,0.4l0,0c0,0-2,0.3-5.9,1l0,0l0,0l0,0l0,0
	c-1.2,0.2-1.9,0.4-1.9,0.4c-0.9,0.2-2.3,0.5-2.6,0.6c-4.5,1.1-24.5,8.2-24.5,8.2l0,0l0,0l0,0c-25.3,13-28.7,13.2-35.5,13.5
	c-0.4,0-1.2,0-2.1,0c0,0-1.8-0.1-3-0.7l0,0l0,0l0,0c-0.3-0.2-1.4-0.6-1.4-0.6c-0.7-0.3-1-0.6-1.3-0.8c-0.4-0.3-1.5-0.7-3.8-0.1
	c-8.4,2.1-24.1,10-24.1,10c-0.9,0.5-2.7,1.4-5.2,2.4c-0.2,0.1-2.2,1-4.5,1.8c-5.4,2-10.9,3.4-11.7,3.6c-13.5,3.4-23.1,5.4-22.9,6.2
	c0.1,0.4,2.2,0.8,3.8,0.8c0.3,0,0.4,0,0.5,0c0,0.2-7.5,1-16.2,2.6c-9.4,1.8-14,3.3-17.6,5c-2.1,1-4.2,2.2-4.2,2.2
	c-4.4,2.5-7.3,4.8-8,5.4c-5.6,4.3-15.8,4.1-23,5c-4.7,0.6-7.1,1.5-27.1,10c-17.4,7.5-32,13.8-43.4,18.8l-21,12.1V768h403.3
	c0.3-1.1,0.9-2.9,2-4.8c2.5-4.3,5.1-4.8,6.4-8.5c0.5-1.2,0-0.7,1-5.6c0.7-3.6,1.1-4.6,2-5.6c1.4-1.5,2.2-1.1,3.4-2.5
	c1.5-1.8,0.6-3.1,1.7-6c0.4-1.2,1.4-3.8,3.7-5.3c3.1-2,5.7-0.3,7.5-2.2c1.6-1.8-0.3-3.7,1.4-6c1.5-2.1,3.5-1.1,6.8-3.5
	c3.3-2.3,2.6-4.2,5.4-5.3c1-0.4,2.7-0.5,6.1-0.6c3-0.1,3.8,0,5.1-0.6c1.5-0.7,1.6-1.6,3-2.8c1.8-1.5,3.5-1.7,5.8-2.5
	c1.9-0.6,1.5-0.8,10.2-6c4.6-2.7,6.9-4.1,7.5-4.4c3.1-1.4,4.9-1.7,6.1-3.5c1.3-1.8,0.5-2.9,1-5.3c1.3-6,7.3-5.8,9.1-12
	c0.9-3.1-0.1-4.8,1.8-6.8c1.3-1.4,3-1.5,3.8-3.3c0.7-1.4,0.2-2.5,0.1-3.9c-0.1-1.8,0.2-4.4,2.3-7.7"/>
<path class="st5" d="M374.3,481.4l19.6,0.9l4.4-0.6c3-0.1,5.2,0.2,6.8,0.5c1.3,0.3,2.6,0.7,4.6,0.7c0.7,0,1.9,0,3.4-0.3
	c4.4-1.1,6.9-4.4,7.3-5c1.3-1.8,1.5-3.1,1.5-3.4c0.1-0.9,0.4-2-0.2-2.7c-0.7-0.9-2.4-0.8-3.1-0.7c-5.4,0.5-14.3,0.3-18.2-1.4
	c-1.8-0.8-3.9-1.7-3.9-1.7c-1.6-0.7-1.8-0.8-2.4-1c-2.5-1-2.9-0.6-3.4-1.2c-1.2-1.3,0.2-3.5-1-4.6c-0.9-0.8-2-0.1-2.7-1
	c-0.5-0.6-0.3-1.4-0.2-2.2c0,0,0.1-1.2-0.3-5.3c-0.3-2.8-1.5-4.5-2.2-5.8c-1.5-3-1.1-5.8,0.2-13.7c2.2-13.8,3.4-20.1,4.1-25.3
	c0.3-2.7,0.9-5.3,1-8c0.1-1.4,0.1-2.4,0.5-3.8c0.8-2.5,2.4-4.4,2.7-4.8c1.3-1.5,1.8-1.5,2.2-2.6c0.5-1.5-0.2-2.3,0.5-3.4
	c0.6-1.1,1.6-0.9,2.4-1.7c1.2-1.3,0.6-3.4,0.2-5.5c-0.6-3.2,0.3-0.8-0.7-11.1c-0.3-3-0.6-5.6-0.9-7.9c-0.7-6-0.8-6-0.9-7.7
	c-0.1-4.3,0.7-4.5,0.7-8.9s-0.8-4.5-0.7-8.5c0.1-5.2,1.5-8.9,1.7-8.9c0.1,0-0.3,1.4,0.3,1.9c0.6,0.5,1.6,0,2-0.2
	c2.2-1,5.2-3.8,5.8-8c0.1-0.7,0-2.4-0.3-5.6c-0.3-3.5-0.5-5.2-0.7-5.6c-1.9-4-7.7-4.6-7.5-6.7c0.1-0.5,0.4-0.7,0.7-1.9
	c0,0,0.2-1,0.2-2c-0.1-2.6-2.9-3.7-3.2-6.2c-0.3-2.3,2-2.8,2.5-6.3c0.3-2-0.3-2.6-0.9-6.3c-0.6-3.5-0.5-6.3-0.5-8.7
	c0-4,0.5-5.7,1-9.6c0.4-3,1.1-9.4,0.2-16.8c-0.7-5.5-1.9-7.7-1.9-13.2c0-1.1,0.1-5.5,0-5.5v0.1c0,0,0.1-0.7,0.4-2.2
	c0.5-2.9-0.2-7.4-0.7-11.6c-0.5-4.1-0.6-7.2-0.7-8c-0.1-2.3-0.2-4.3-0.2-6.8c0.1-5.9,0.9-6.5,0.5-10.1c-0.4-3.2-0.9-2.6-1.4-6.3
	c-0.4-3.7,0.1-5-1-7.4c-0.7-1.6-1.7-2.6-1.4-3.1c0.3-0.4,1.2,0.2,3.4,0.3c1.3,0.1,2,0.1,2.7-0.2c1.3-0.6,1.1-2.1,2.2-4.1
	c1.8-3.3,3.9-2.7,5.1-5.8c0.6-1.5,0.2-1.9,1-3.9c0.8-1.9,1.3-1.8,1.7-3.2c0.6-2.2-0.3-3,0.5-4.8c0.6-1.4,1.3-1,1.9-2.2
	c1-2-0.4-3.6-0.2-7.7c0-0.7,0.1-1.2,0.2-1.5l1.9-1.4c-0.1-1.5-0.2-3.8-0.3-6.5c-0.2-4.4-1.3-6.2-1.7-6.7c-5.3-6-1.4-2.6-5.3-6
	c-2-1.8-11.6-6.7-17-6c-6.2,0.8-10.1,4.8-13.6,8.4c-2.8,2.9-6.4,6.6-5.9,9.9c0.1,0.7,0.5,2.7,0,5.3c0,0-0.2,0.9-0.5,1.9
	c-1.7,4.9-10,11.3-9.3,12.6c0.6,1.2,7.5-2.1,8.3-0.7c0.4,0.7-0.9,2.3-2.2,3.1c-1.9,1-3.7,0.3-3.9,0.2c0,0-3.7,1.1-4.1,1.2
	c-5.2,1.5-11.9-1.5-20.9,0c-4.9,0.8-6.9,2.4-8,3.6c-1,1.1-1.5,2.3-2.5,4.6c-1.5,3.5-2.6,6-1.9,8.6c0.5,1.9,1.8,2.9,1.4,3.4
	c-0.4,0.6-1.9-0.3-4.1-0.3c-2.5-0.1-3.6,1.1-5.9,1.9c-3.5,1.2-5.3,0.2-8.5,0.3c-5,0.3-8.6,3.3-12.9,6.8c-5.3,4.4-9.7,8.1-10.2,13.5
	c-0.5,5.8,3.6,10.6,0.9,14c-0.8,0.9-1.2,0.7-2,1.9c-1.8,2.4-0.8,4.7-1,8.9c-0.4,5.6-2.7,8.7-1.7,9.4c0.6,0.4,1.9-0.2,2.4-1
	s0-1.5,0.5-2.1c0.5-0.5,1.4-0.5,2-0.2c1.4,0.8,1.1,3.9,1,5.1c-0.2,2.6-1,3.6-0.3,4.8c0.5,0.8,1,0.8,1.4,1.7c0.3,0.9,0.2,2-0.3,2.7
	c-0.6,0.8-1.3,0.7-1.9,1c-2,1.2,0.1,6.8,0.9,14.4c0.5,4.3,0,4.7,0.7,8.2c0.5,2.5,0.7,2.5,2.2,7.7c1.9,6.6,2,8.3,3.6,9.1
	c1.8,0.8,3-0.7,4.9,0.3c1.1,0.6,1,1.3,2.9,4.3c1.6,2.6,2.4,3.9,3.4,4.5c2.5,1.4,5.2-0.1,5.9,1.2c0.3,0.6,0,1.5-0.3,2.2
	c-0.7,1.6-1.6,1.7-1.9,2.7c-0.3,1.4,0.8,3.2,2,3.4c1.1,0.2,1.5-1.1,2.7-1c1.1,0.1,2.2,1.2,2.4,2.4c0.1,0.8-0.3,1.6-0.5,2
	c-0.6,1.1-1.2,1.2-1.2,1.7c0,1,2.6,2,4.4,2.6c3.5,1.2,5.5,1.9,7.3,0.9c1.1-0.7,1.8-1.8,2.2-1.6c0.3,0.2,0.1,0.9,0,2
	c-0.1,1.3,1.6,2.5,1.6,3c-0.1,2,1,1.8,2.4,4.2c0.6,1.1,0.4,3.1,0,7c-0.7,6.3,0,5.7,0.7,7.2c1.4,3.1,4.1,4.3,4,6.6
	c0,1-0.8,1.3-1.1,3.3c-0.2,1.2-0.2,2.2-0.1,2.7c0.2,3.6,1,4.1,1,8.2c0,4.2-0.7,5.8-1.6,9.1c-0.4,1.3-0.3,5.9-0.9,7.8
	c-0.9,2.5-1-1.4-1.9,3.5c-0.5,2.7,0.5,6,0.2,6.8c-1.2,3-2,2.4-2.4,4.6c-0.5,2.5-0.9,2.8-2,3.9c-0.7,0.7-0.4,1.8-1.1,2.5
	c-0.9,0.9-1.3,0.8-1.2,2.4c0.2,3.4-0.6,3.4-1.9,8.5c-0.1,0.4,0,2.8-0.2,5.5c-0.9,9.5-1.8,23.4-1.8,34.2c0,7.8,0,11.8,0,11.8
	c-0.2,0.7-0.8,2.4,0,3.7c0.1,0.2,0.6,0.8,1.5,1.9c0.5,0.6,0.7,0.9,0.8,1.3c0,0.8-0.7,1.4-1,1.7v5.4c1.9,1.6,2.2,2.2,2,2.4
	c-0.1,0.2-0.8,0-1.3,0.4c-0.4,0.4-0.4,1.1-0.4,1.4c0.1,2.4,0,5,0,5.6c-0.1,2-0.7,1.6-1,4.2c-0.3,2.4,0.2,2.5-0.1,4.7
	c-0.3,2.2-0.9,2.8-0.5,4.1c0,0.2,0.4,1.5,1.5,2.3c1.5,1.1,3.4,0.6,5.6,0.3c4.2-0.7,2.1,0.2,12.5-0.8c2.6-0.2,3.2-0.4,5.4-0.5
	c3.8-0.3,4.1-0.1,6.4-0.3c3.7-0.3,4.3-0.9,10.4-2c4.5-0.8,3.7-0.4,6.4-1c7.6-1.7,10.1-4.1,11.2-5.4c0.8-0.9,1.7-2,1.5-3.3
	c-0.4-2.4-4.6-3.5-5.1-3.6c-2.7-0.7-3.2,0.3-7.5-0.3c-0.7-0.1-1.9-0.2-3.2-0.5c-2.4-0.4-5.1-1-5.6-1.6c-0.6-0.9,0-1.4-0.5-2.4
	c-0.7-1.4-2-0.9-4.5-2.4c-1.6-1-1.8-1.7-3.2-2.2c-1.2-0.4-2.2,0.2-2.5-0.3c-0.3-0.4-1.2-1-0.9-2.2c0.4-1.6,0,0,0.1-2.2
	s-0.2-3.3-0.6-4.1c-0.6-1,0.1-1.9-0.5-3.1c-0.2-0.4-1.1,0.1-1-1.3c0-1.8-0.5-2.5-0.5-3.2c-0.1-1.5,1-2.4,0.8-4c-0.2-1.1-0.1-2,0-3.2
	c0.2-2,0.5-2.4,0.5-3.6c0.1-1.9-0.6-3-1-4.4c-0.6-1.9-0.5-3.3-0.1-7.7c0.5-6.3,0.8-9.4,1-11.4c0.4-3.4,0.7-8.3,0.5-14.4l2.2-2.3
	c-0.6-1.6-1.1-3.6-0.2-4.2c0.6-0.5,1.5,0.3,2.7-0.1c2-0.7,2.5-3.9,2.7-4.7c0.2-1,0.2-1.9,0.1-2.4l2.4-0.9c0.6-0.7,0.9-1.4,1.1-1.9
	c0.5-1.1,1-2.1,0.5-2.8c-0.3-0.5-0.9-0.5-1-1.1c-0.2-0.8,0.2-1.5,0.4-1.7c0.7-1,0.4-0.9,1.8-1.8c0.7-0.5,1.4-1.8,1.8-2.4
	c1.4-2,2.1-2.7,2.8-5.8c0.5-2.2,0.8-4.1,1.4-4.1c0.4,0,0.5,0.7,1.4,2.2c1.5,2.5,2.2,2.3,2.8,3.9c0.7,2-0.3,2.8,0.6,4.1
	c0.8,1.1,2.1,1.2,2,1.9c0,0.4-0.4,0.5-1.4,1.4c-0.8,0.8-1.2,1.2-1.4,1.7c-0.3,0.9,0,2,0.5,2.7c0.7,0.9,1.6,1,1.5,1.4
	s-1.1,0.2-1.7,0.9c-0.4,0.5-0.1,0.8-0.4,2c-0.2,1-0.4,0.9-0.6,2c-0.4,1.6-0.1,2.1-0.6,2.6c-0.6,0.6-1.2,0.3-1.5,0.8
	c-0.5,0.8,0.9,1.8,0.6,3.2c-0.2,1.1-1.1,1-1.7,2.3c-0.6,1.4-0.1,2.3-0.1,4c0,1.1-0.4,2.7-1.7,4.6l-0.5,14.1l0.1,25.9
	c0.4,2.6,0.2,5-0.2,7c-0.5,2.2-1.2,3.1-1.7,5.3c-0.5,2.4-0.5,4.8-0.1,7l2.4,2v5l-1.4,1.6"/>
<path class="st4" d="M158.4,106.9c4,0.1,9.3,0.8,15.2,3.2c3.8,1.5,6.9,3.4,9.6,5.2c2.4,1.3,5.2,3.3,8.2,6.2c4.1,4.1,6.3,3,8.2,6.3
	c0.8-3.2,3.2-3.7,7.6-8.7c1.9-2.2,3.8-3.7,5.4-4.6c2.8-1.8,6.2-3.6,10.2-5c6.2-2.2,11.7-2.7,15.8-2.6c-3.9,0.6-9.2,1.9-14.9,5.2
	c-3.7,2.1-6.8,4.5-9.2,6.7c-1.8,1.2-3.8,2.9-5.9,5.2c-4.4,5-6.7,10.7-7.9,14.4c-2.1-3.6-2.9-4.8-7.9-9.1c-3.2-2.7-6.3-7-8.8-8.1
	c-2.6-2.5-8.4-6.6-12.6-9.1C166.3,109.2,161.9,107.7,158.4,106.9z"/>
<path class="st6" d="M694.4,173.9"/>
<path class="st4" d="M163.4,159c4.1,0.1,9.5,0.8,15.5,3.2c3.8,1.5,7.1,3.4,9.7,5.3c2.4,1.3,5.3,3.3,8.4,6.3c4.2,4.1,6.4,3.1,8.3,6.4
	c0.8-3.2,3.3-3.8,7.7-8.9c1.9-2.2,3.9-3.7,5.4-4.7c2.8-1.8,6.3-3.6,10.3-5.1c6.3-2.2,11.9-2.7,16.1-2.6c-4,0.6-9.3,2-15.2,5.3
	c-3.8,2.1-6.9,4.6-9.4,6.8c-1.8,1.2-3.9,2.9-6,5.3c-4.5,5.1-6.8,10.9-8.1,14.6c-2.1-3.7-2.9-4.9-8-9.2c-3.2-2.8-6.4-7.1-8.9-8.3
	c-2.6-2.6-8.6-6.7-12.9-9.2C171.5,161.4,166.9,159.8,163.4,159z"/>
<path class="st4" d="M79.3,140.1c3.8-0.6,9-0.8,15.2,0.8c3.9,1,7.3,2.4,10.2,4c2.5,1,5.6,2.6,9.1,5.3c4.8,3.7,6.6,2.1,9.1,5.5
	c0.1-3.6,2.3-4.7,5.4-10.9c1.3-2.8,2.8-4.7,4.1-6c2.3-2.4,5.1-5.1,8.6-7.3c5.4-3.5,10.5-5,14.5-5.7c-3.6,1.3-8.3,3.8-13.1,8.4
	c-3.1,3-5.5,6.2-7.4,9.1c-1.4,1.6-3,3.8-4.5,6.8c-3.1,6.3-4.2,13-4.5,17.2c-2.8-3.6-3.7-4.8-9.4-8.5c-3.6-2.4-7.5-6.5-10.1-7.3
	c-3-2.3-9.4-5.7-13.9-7.7C87.4,141.2,82.8,140.4,79.3,140.1z"/>
<path class="st4" d="M254.3,79.3c4,1.1,9.1,3.1,14.5,7c3.4,2.5,6.1,5.2,8.3,7.8c2,1.9,4.4,4.7,6.7,8.5c3.1,5.2,5.6,4.7,6.6,8.6
	c1.6-3.2,4.2-3.1,9.8-7.4c2.5-1.9,4.7-2.9,6.5-3.6c3.2-1.2,7.1-2.3,11.4-2.8c6.7-0.8,12.4,0,16.5,1.1c-4.1-0.3-9.7-0.2-16.3,1.9
	c-4.2,1.3-7.9,3.1-10.9,4.9c-2,0.8-4.5,2.1-7.2,4.1c-5.7,4.2-9.4,9.7-11.6,13.2c-1.2-4.3-1.7-5.8-5.6-11.5
	c-2.5-3.6-4.5-8.9-6.7-10.7c-1.9-3.3-6.8-8.9-10.4-12.6C261.7,83.7,257.6,81,254.3,79.3z"/>
</svg>
