<?xml version="1.0" encoding="utf-8"?>
<!-- Generator: Adobe Illustrator 24.0.1, SVG Export Plug-In . SVG Version: 6.00 Build 0)  -->
<svg version="1.1" id="Layer_1" xmlns="http://www.w3.org/2000/svg" xmlns:xlink="http://www.w3.org/1999/xlink" x="0px" y="0px"
	 viewBox="0 0 612 792" style="enable-background:new 0 0 612 792;" xml:space="preserve">
<style type="text/css">
	.st0{fill:#5D917A;}
	.st1{fill:#414042;}
	.st2{fill:#36713E;}
	.st3{fill:#006838;}
	.st4{fill:#58595B;}
	.st5{stroke:#000000;stroke-width:0.25;stroke-miterlimit:10;}
</style>
<polyline class="st0" points="161.7,233.96 144.36,264.32 131.35,286 137.85,301.18 125.93,301.18 121.59,310.93 108.58,310.93 
	116.17,321.77 140.02,321.77 135.14,332.61 127.01,343.46 97.74,355.38 110.75,362.97 129.72,368.39 129.72,380.31 90.15,390.07 
	102.08,396.58 96.66,409.58 106.41,409.58 109.67,420.43 90.15,426.93 104.25,436.69 90.15,446.44 64.14,452.95 81.48,462.7 
	64.14,483.3 99.91,483.3 96.66,496.31 226.75,496.31 223.5,483.3 259.27,483.3 241.93,462.7 259.27,452.95 233.25,446.44 
	219.16,436.69 233.25,426.93 213.74,420.43 216.99,409.58 226.75,409.58 221.33,396.58 233.25,390.07 193.68,380.31 193.68,368.39 
	212.65,362.97 225.66,355.38 196.39,343.46 188.26,332.61 183.38,321.77 207.23,321.77 214.82,310.93 201.81,310.93 197.48,301.18 
	185.55,301.18 192.06,286 179.05,264.32 161.7,233.96 "/>
<circle class="st1" cx="341.75" cy="396.1" r="128.04"/>
<polyline class="st2" points="217.53,306.12 201.3,334.54 189.12,354.83 195.21,369.04 184.04,369.04 179.98,378.18 167.8,378.18 
	174.91,388.33 197.24,388.33 192.67,398.48 185.06,408.63 157.65,419.79 169.83,426.9 187.59,431.97 187.59,443.14 150.55,452.27 
	161.71,458.36 156.64,470.54 165.77,470.54 168.82,480.69 150.55,486.78 163.74,495.91 150.55,505.05 126.19,511.14 142.43,520.27 
	126.19,539.56 159.68,539.56 156.64,551.74 278.43,551.74 275.39,539.56 308.88,539.56 292.64,520.27 308.88,511.14 284.52,505.05 
	271.33,495.91 284.52,486.78 266.25,480.69 269.3,470.54 278.43,470.54 273.36,458.36 284.52,452.27 247.48,443.14 247.48,431.97 
	265.24,426.9 277.42,419.79 250.01,408.63 242.4,398.48 237.83,388.33 260.16,388.33 267.27,378.18 255.09,378.18 251.03,369.04 
	239.86,369.04 245.95,354.83 233.77,334.54 217.53,306.12 "/>
<polyline class="st3" points="103.39,365.14 89.05,390.23 78.3,408.15 83.67,420.7 73.82,420.7 70.23,428.76 59.48,428.76 
	65.75,437.72 85.47,437.72 81.43,446.68 74.71,455.65 50.52,465.5 61.27,471.78 76.95,476.26 76.95,486.11 44.24,494.18 
	54.1,499.56 49.62,510.31 57.69,510.31 60.37,519.27 44.24,524.65 55.89,532.71 44.24,540.78 22.74,546.15 37.08,554.22 
	22.74,571.25 52.31,571.25 49.62,582 157.16,582 154.47,571.25 184.04,571.25 169.7,554.22 184.04,546.15 162.53,540.78 
	150.88,532.71 162.53,524.65 146.4,519.27 149.09,510.31 157.16,510.31 152.68,499.56 162.53,494.18 129.82,486.11 129.82,476.26 
	145.51,471.78 156.26,465.5 132.06,455.65 125.34,446.68 121.31,437.72 141.03,437.72 147.3,428.76 136.54,428.76 132.96,420.7 
	123.1,420.7 128.48,408.15 117.73,390.23 103.39,365.14 "/>
<path class="st4" d="M528.28,654.53c0.32-2.18,3.99-9.08,4.58-11.04c0.79-2.68,3.3-2.37,4.58-5.17c1.18-2.59-0.59-3.68,0.76-6.58
	c0.93-1.99,1.85-1.66,2.8-3.76c1.26-2.79-0.09-3.97,1.27-5.64c1.19-1.46,2.48-0.87,4.24-2.74c0.43-0.46,1.46-1.55,1.69-3.13
	c0.27-1.79-0.76-2.34-0.85-4.23c-0.08-1.81,0.85-1.97,1.69-4.7c0.94-3.02-0.06-3.28,0.85-6.89c0.64-2.56,1.27-2.94,1.19-4.7
	c-0.09-1.97-0.91-2.21-1.19-4.07c-0.41-2.79,1.29-3.25,1.69-6.74c0.45-3.84-1.41-4.98-0.17-6.97c1.22-1.97,3.36-1.36,4.32-3.29
	c0.93-1.85-0.82-2.88-0.51-6.11c0.25-2.59,1.44-2.63,1.78-5.17c0.37-2.81-0.78-5.08-1.78-7.05c-1.25-2.46-2.43-4.79-5.08-6.11
	c-2.43-1.2-4.69-0.87-5.34-2.35c-0.49-1.14,0.43-2.27-0.25-2.82c-0.62-0.5-1.55,0.31-2.8,0c-1.54-0.38-1.39-1.93-2.8-3.05
	c-2.47-1.97-5.81,0.48-8.13-1.41c-1.45-1.18-0.68-2.58-2.29-3.76c-1.39-1.02-2.99-0.73-5.08-0.7c-2.3,0.03-5.26-0.68-11.18-2.11
	c-5.99-1.45-4.89-1.78-8.39-2.35c-4.43-0.72-7.28-0.37-8.39-2.11c-0.86-1.35,0.05-2.77-1.02-3.52c-1.01-0.71-2.08,0.36-3.9,0
	c-2.75-0.55-5.12-3.99-4.41-5.95c0.32-0.88,1.39-1.79,1.02-2.3c-0.1-0.15-0.28-0.19-0.35-0.21c-1.72-0.49-4.43-3.7-7.39-3.81
	c-2.64-0.1-3.88,2.33-5.06,1.69c-0.64-0.35-0.49-1.17-0.76-3.99c-0.28-2.86-0.41-4.29-1.02-5.17c-0.8-1.16-2.18-1.67-6.1-2.35
	c-6.35-1.1-6.89-0.49-12.71-1.41c-1.99-0.31-4.69-0.82-8.55-0.93c-1.09-0.03-1.92-0.02-2.13-0.01c-2.33,0.04-5.34,0.08-8.64,0.94
	c-1.85,0.48-3,1-5.69,1.45c-1.83,0.3-2.2,0.21-2.45,0.03c-1.41-1.05,1.48-4.89,1.88-8.68c0.67-6.29-5.36-13.78-12.2-16.29
	c0,0-6.8-2.5-20.33,0c-0.01,0-0.12,0.02-0.12,0.02c-0.01-0.02,0.86-0.2,0.86-0.24c-0.03-0.34-53.26,3.66-57.67,3.98
	c-0.13,0.01-0.54,0.04-1.09,0.08c-0.16,0.01-3.17,0.26-5.97,0.64c-0.52,0.07-1.54,0.21-2.71,0.39c0,0-0.01,0-0.01,0
	c0,0-1.95,0.29-5.94,1.01c0,0,0,0,0,0c0,0,0,0,0,0c0,0,0,0-0.01,0c0,0,0,0-0.01,0c-1.17,0.23-1.88,0.38-1.88,0.38
	c-0.92,0.2-2.26,0.51-2.6,0.59c-4.52,1.09-24.51,8.18-24.51,8.18c0,0,0,0,0,0c0,0,0,0,0,0c0,0-0.01,0-0.01,0
	c-25.31,12.97-28.72,13.16-35.52,13.52c-0.36,0.02-1.21,0.01-2.09-0.05c0,0-1.82-0.14-2.97-0.69c0,0,0,0,0,0c0,0,0,0,0,0
	c0,0,0,0,0,0c-0.28-0.16-1.36-0.65-1.36-0.65c-0.66-0.3-1.03-0.61-1.32-0.78c-0.45-0.27-1.48-0.67-3.84-0.07
	c-8.38,2.11-24.06,10.02-24.06,10.02c-0.91,0.46-2.74,1.37-5.2,2.44c-0.16,0.07-2.25,0.97-4.49,1.81
	c-5.36,2.01-10.95,3.41-11.66,3.59c-13.49,3.36-23.09,5.43-22.95,6.24c0.06,0.37,2.22,0.77,3.8,0.81c0.29,0.01,0.45,0,0.46,0.03
	c0.03,0.18-7.52,1.01-16.22,2.63c-9.44,1.77-14.03,3.32-17.62,5.01c-2.06,0.97-4.16,2.16-4.16,2.16c-4.44,2.5-7.29,4.8-8.04,5.36
	c-5.64,4.26-15.8,4.12-23.04,5.01c-4.71,0.58-7.09,1.45-27.11,10.02c-17.43,7.46-32.01,13.81-43.38,18.8l-21.01,12.06v176.33h403.29
	c0.29-1.1,0.87-2.86,2.03-4.82c2.54-4.28,5.08-4.75,6.44-8.46c0.46-1.25,0-0.73,1.02-5.64c0.74-3.56,1.14-4.63,2.03-5.64
	c1.36-1.53,2.19-1.06,3.39-2.51c1.49-1.79,0.65-3.06,1.69-5.95c0.42-1.18,1.36-3.79,3.73-5.33c3.08-2,5.72-0.32,7.46-2.19
	c1.62-1.75-0.27-3.66,1.36-5.95c1.49-2.09,3.49-1.11,6.78-3.45c3.26-2.32,2.58-4.21,5.42-5.33c0.96-0.38,2.67-0.46,6.1-0.63
	c2.96-0.14,3.81,0,5.08-0.63c1.5-0.74,1.62-1.6,3.05-2.82c1.82-1.55,3.46-1.73,5.76-2.51c1.88-0.63,1.52-0.76,10.17-5.95
	c4.57-2.74,6.85-4.11,7.46-4.39c3.15-1.43,4.86-1.73,6.1-3.45c1.27-1.76,0.49-2.87,1.02-5.33c1.28-5.99,7.3-5.81,9.07-11.98
	c0.88-3.06-0.12-4.79,1.78-6.81c1.35-1.44,2.97-1.54,3.81-3.29c0.66-1.37,0.24-2.45,0.14-3.93c-0.13-1.8,0.19-4.39,2.26-7.7"/>
<path class="st4" d="M374.29,481.36l19.61,0.91l4.41-0.6c2.97-0.14,5.24,0.18,6.79,0.51c1.31,0.28,2.59,0.67,4.58,0.68
	c0.7,0.01,1.93,0.01,3.4-0.34c4.43-1.06,6.88-4.37,7.3-4.96c1.27-1.77,1.48-3.1,1.53-3.42c0.13-0.89,0.4-2-0.17-2.74
	c-0.74-0.94-2.41-0.75-3.06-0.68c-5.35,0.55-14.26,0.32-18.17-1.37c-1.84-0.79-3.91-1.71-3.91-1.71c-1.63-0.72-1.82-0.81-2.38-1.03
	c-2.55-0.96-2.86-0.63-3.4-1.2c-1.25-1.34,0.22-3.5-1.02-4.62c-0.87-0.78-2.04-0.14-2.72-1.03c-0.46-0.6-0.28-1.37-0.17-2.22
	c0,0,0.15-1.23-0.34-5.3c-0.34-2.77-1.55-4.47-2.21-5.81c-1.46-2.95-1.08-5.81,0.17-13.68c2.2-13.8,3.44-20.09,4.08-25.31
	c0.33-2.68,0.87-5.34,1.02-8.04c0.08-1.42,0.07-2.38,0.51-3.76c0.79-2.49,2.39-4.41,2.72-4.79c1.3-1.52,1.82-1.48,2.21-2.56
	c0.54-1.49-0.18-2.29,0.51-3.42c0.65-1.06,1.6-0.86,2.38-1.71c1.16-1.26,0.57-3.39,0.17-5.47c-0.62-3.23,0.3-0.76-0.68-11.11
	c-0.28-3-0.59-5.62-0.85-7.87c-0.7-6.02-0.81-6.05-0.85-7.69c-0.09-4.28,0.68-4.48,0.68-8.89c0-4.43-0.78-4.53-0.68-8.55
	c0.13-5.24,1.54-8.92,1.7-8.89c0.09,0.02-0.3,1.37,0.34,1.88c0.56,0.45,1.6,0.02,2.04-0.17c2.23-0.96,5.18-3.84,5.77-8.04
	c0.1-0.72-0.05-2.36-0.34-5.64c-0.31-3.47-0.47-5.2-0.68-5.64c-1.91-3.96-7.72-4.64-7.47-6.67c0.06-0.48,0.41-0.69,0.68-1.88
	c0,0,0.22-1.01,0.17-2.05c-0.13-2.58-2.87-3.72-3.23-6.16c-0.34-2.33,1.95-2.76,2.55-6.33c0.33-1.99-0.26-2.56-0.85-6.33
	c-0.56-3.55-0.53-6.26-0.51-8.72c0.04-4.03,0.55-5.68,1.02-9.58c0.36-2.98,1.12-9.38,0.17-16.76c-0.71-5.53-1.88-7.71-1.87-13.17
	c0-1.05,0.06-5.47,0-5.47c-0.01,0-0.03,0.14-0.02,0.14c0,0,0.12-0.73,0.36-2.19c0.48-2.91-0.21-7.41-0.68-11.63
	c-0.46-4.15-0.63-7.19-0.68-8.04c-0.12-2.3-0.23-4.27-0.17-6.84c0.13-5.91,0.91-6.46,0.51-10.09c-0.35-3.17-0.94-2.65-1.36-6.33
	c-0.42-3.68,0.08-4.98-1.02-7.35c-0.74-1.58-1.72-2.63-1.36-3.08c0.31-0.39,1.22,0.18,3.4,0.34c1.33,0.1,2.04,0.15,2.72-0.17
	c1.34-0.63,1.13-2.05,2.21-4.1c1.75-3.33,3.92-2.72,5.09-5.81c0.57-1.49,0.17-1.91,1.02-3.93c0.8-1.92,1.28-1.82,1.7-3.25
	c0.65-2.19-0.29-3.03,0.51-4.79c0.63-1.4,1.26-0.96,1.87-2.22c0.97-2.02-0.43-3.59-0.17-7.69c0.04-0.68,0.12-1.22,0.17-1.54
	l1.87-1.37c-0.1-1.51-0.23-3.76-0.34-6.5c-0.18-4.41-1.26-6.17-1.7-6.67c-5.26-5.98-1.36-2.56-5.26-5.98
	c-2.02-1.77-11.57-6.69-16.98-5.98c-6.22,0.81-10.09,4.78-13.58,8.38c-2.84,2.91-6.38,6.56-5.94,9.92c0.09,0.66,0.51,2.69,0,5.3
	c0,0-0.18,0.95-0.51,1.88c-1.69,4.85-10.05,11.3-9.34,12.65c0.61,1.16,7.53-2.09,8.32-0.68c0.39,0.7-0.85,2.33-2.21,3.08
	c-1.86,1.03-3.69,0.27-3.91,0.17c0,0-3.72,1.09-4.08,1.2c-5.24,1.51-11.92-1.52-20.89,0c-4.93,0.84-6.92,2.44-7.98,3.59
	c-1.01,1.1-1.52,2.27-2.55,4.62c-1.54,3.52-2.62,5.97-1.87,8.55c0.55,1.89,1.78,2.85,1.36,3.42c-0.44,0.6-1.89-0.3-4.08-0.34
	c-2.51-0.05-3.64,1.08-5.94,1.88c-3.48,1.22-5.27,0.17-8.49,0.34c-5.04,0.27-8.62,3.26-12.91,6.84c-5.31,4.43-9.68,8.08-10.19,13.51
	c-0.54,5.78,3.57,10.65,0.85,14.02c-0.75,0.93-1.2,0.73-2.04,1.88c-1.78,2.44-0.75,4.74-1.02,8.89c-0.37,5.61-2.73,8.74-1.7,9.4
	c0.57,0.36,1.89-0.19,2.38-1.03c0.46-0.79-0.01-1.52,0.51-2.05c0.45-0.47,1.42-0.53,2.04-0.17c1.42,0.82,1.13,3.89,1.02,5.13
	c-0.24,2.59-1.05,3.57-0.34,4.79c0.46,0.78,1.02,0.77,1.36,1.71c0.31,0.87,0.24,1.98-0.34,2.74c-0.58,0.76-1.31,0.67-1.87,1.03
	c-2,1.25,0.06,6.8,0.85,14.36c0.45,4.29,0.01,4.67,0.68,8.21c0.47,2.51,0.73,2.52,2.21,7.69c1.89,6.6,1.97,8.33,3.57,9.06
	c1.78,0.82,3.03-0.72,4.92,0.34c1.08,0.6,1.04,1.3,2.89,4.27c1.61,2.6,2.42,3.9,3.4,4.45c2.53,1.43,5.25-0.09,5.94,1.2
	c0.33,0.63-0.03,1.5-0.34,2.22c-0.68,1.61-1.63,1.66-1.87,2.74c-0.3,1.38,0.84,3.24,2.04,3.42c1.07,0.16,1.46-1.12,2.72-1.03
	c1.12,0.09,2.21,1.22,2.38,2.39c0.12,0.84-0.26,1.56-0.51,2.05c-0.58,1.13-1.17,1.22-1.19,1.71c-0.04,1.05,2.58,1.95,4.42,2.56
	c3.5,1.17,5.55,1.86,7.3,0.85c1.15-0.66,1.81-1.83,2.17-1.62c0.29,0.17,0.07,0.89,0,2.05c-0.07,1.31,1.58,2.52,1.57,2.99
	c-0.06,2.04,1.03,1.78,2.38,4.19c0.64,1.14,0.43,3.13,0,7.05c-0.7,6.31-0.02,5.69,0.68,7.22c1.41,3.1,4.06,4.34,4.03,6.63
	c-0.01,0.98-0.76,1.28-1.15,3.33c-0.23,1.24-0.16,2.18-0.13,2.69c0.21,3.61,0.98,4.11,0.98,8.21c0,4.25-0.7,5.84-1.61,9.11
	c-0.36,1.28-0.28,5.93-0.93,7.82c-0.86,2.49-1.03-1.37-1.87,3.46c-0.47,2.72,0.48,6.03,0.17,6.8c-1.18,2.98-1.97,2.36-2.38,4.62
	c-0.45,2.47-0.91,2.78-2,3.85c-0.67,0.67-0.41,1.77-1.06,2.48c-0.85,0.92-1.3,0.82-1.23,2.39c0.16,3.37-0.64,3.41-1.91,8.55
	c-0.09,0.37,0,2.81-0.25,5.47c-0.92,9.48-1.79,23.38-1.78,34.2c0.01,7.84,0.01,11.76,0,11.8c-0.2,0.69-0.81,2.44,0,3.72
	c0.15,0.23,0.61,0.8,1.53,1.92c0.51,0.63,0.74,0.89,0.76,1.28c0.05,0.78-0.69,1.42-1.02,1.67v5.39c1.91,1.65,2.16,2.22,2.04,2.44
	c-0.15,0.25-0.81-0.03-1.27,0.38c-0.44,0.38-0.4,1.09-0.38,1.41c0.12,2.36,0.04,4.95,0,5.64c-0.12,2.01-0.69,1.61-1.02,4.23
	c-0.3,2.4,0.21,2.45-0.13,4.74c-0.32,2.16-0.87,2.77-0.51,4.1c0.05,0.18,0.42,1.48,1.53,2.31c1.51,1.12,3.41,0.63,5.6,0.26
	c4.16-0.71,2.14,0.25,12.48-0.77c2.56-0.25,3.23-0.37,5.35-0.51c3.75-0.26,4.11-0.08,6.37-0.26c3.71-0.29,4.34-0.91,10.44-2.05
	c4.45-0.83,3.67-0.42,6.37-1.03c7.58-1.69,10.13-4.14,11.21-5.39c0.79-0.92,1.74-2.05,1.53-3.33c-0.4-2.41-4.58-3.46-5.09-3.59
	c-2.71-0.68-3.22,0.29-7.51-0.26c-0.68-0.09-1.91-0.25-3.23-0.47c-2.4-0.4-5.13-0.97-5.56-1.58c-0.6-0.85,0.05-1.39-0.51-2.44
	c-0.73-1.36-2.03-0.87-4.46-2.44c-1.59-1.03-1.75-1.71-3.18-2.18c-1.25-0.41-2.18,0.25-2.55-0.26c-0.32-0.44-1.16-0.95-0.87-2.25
	c0.36-1.63,0,0,0.11-2.24c0.11-2.22-0.16-3.31-0.64-4.1c-0.63-1.05,0.1-1.93-0.51-3.08c-0.19-0.35-1.06,0.11-1.02-1.28
	c0.05-1.84-0.48-2.46-0.51-3.21c-0.06-1.54,1.02-2.39,0.76-3.98c-0.18-1.15-0.09-2.03,0-3.21c0.16-2.03,0.46-2.37,0.51-3.59
	c0.07-1.88-0.57-2.97-1.02-4.36c-0.61-1.89-0.51-3.27-0.13-7.69c0.54-6.29,0.81-9.44,1.02-11.41c0.36-3.43,0.7-8.31,0.51-14.36
	l2.17-2.31c-0.56-1.6-1.06-3.58-0.25-4.23c0.64-0.52,1.46,0.32,2.67-0.13c1.95-0.72,2.52-3.86,2.67-4.74
	c0.18-1.02,0.17-1.88,0.13-2.44l2.42-0.9c0.57-0.74,0.93-1.43,1.15-1.92c0.48-1.08,0.95-2.08,0.51-2.82
	c-0.3-0.5-0.85-0.55-1.02-1.15c-0.22-0.79,0.24-1.48,0.38-1.67c0.74-1,0.42-0.88,1.78-1.8c0.74-0.49,1.38-1.84,1.78-2.44
	c1.38-2.05,2.12-2.71,2.8-5.77c0.48-2.18,0.79-4.07,1.4-4.1c0.39-0.02,0.55,0.74,1.4,2.18c1.5,2.54,2.25,2.27,2.8,3.85
	c0.69,1.95-0.3,2.81,0.64,4.1c0.81,1.12,2.07,1.22,2.04,1.92c-0.02,0.38-0.39,0.45-1.4,1.41c-0.82,0.78-1.23,1.16-1.4,1.67
	c-0.31,0.89-0.02,1.98,0.51,2.69c0.67,0.9,1.59,1.04,1.53,1.41c-0.07,0.39-1.09,0.18-1.66,0.9c-0.37,0.46-0.15,0.82-0.38,2.05
	c-0.19,0.99-0.35,0.88-0.64,2.05c-0.4,1.61-0.14,2.06-0.64,2.56c-0.58,0.6-1.21,0.26-1.53,0.77c-0.49,0.78,0.89,1.78,0.64,3.21
	c-0.19,1.07-1.06,1.03-1.66,2.31c-0.64,1.36-0.07,2.28-0.13,3.98c-0.04,1.12-0.36,2.71-1.66,4.62l-0.51,14.11l0.13,25.9
	c0.38,2.61,0.24,4.95-0.25,7.05c-0.51,2.2-1.17,3.09-1.66,5.26c-0.54,2.39-0.52,4.76-0.13,7.05l2.42,2.05v4.96l-1.43,1.61"/>
<path class="st4" d="M158.37,106.88c4.03,0.1,9.32,0.8,15.24,3.2c3.75,1.51,6.94,3.38,9.56,5.19c2.35,1.31,5.22,3.27,8.22,6.19
	c4.15,4.05,6.33,3,8.16,6.34c0.76-3.17,3.25-3.72,7.57-8.72c1.89-2.19,3.78-3.65,5.35-4.61c2.79-1.78,6.19-3.59,10.16-4.99
	c6.18-2.19,11.67-2.68,15.84-2.6c-3.93,0.58-9.18,1.93-14.94,5.19c-3.7,2.1-6.77,4.5-9.21,6.73c-1.75,1.19-3.81,2.87-5.88,5.25
	c-4.39,5.04-6.72,10.74-7.92,14.38c-2.1-3.62-2.87-4.84-7.87-9.09c-3.18-2.71-6.31-7-8.78-8.14c-2.58-2.54-8.44-6.56-12.65-9.08
	C166.31,109.21,161.85,107.7,158.37,106.88z"/>
<path class="st5" d="M694.38,173.87"/>
<path class="st4" d="M163.41,159.01c4.1,0.1,9.48,0.82,15.5,3.25c3.81,1.54,7.06,3.43,9.72,5.28c2.39,1.34,5.31,3.32,8.36,6.29
	c4.22,4.11,6.43,3.05,8.29,6.44c0.78-3.22,3.31-3.77,7.69-8.86c1.92-2.23,3.85-3.71,5.44-4.69c2.83-1.8,6.29-3.64,10.33-5.07
	c6.29-2.23,11.86-2.72,16.11-2.64c-4,0.59-9.34,1.96-15.19,5.28c-3.76,2.13-6.88,4.57-9.36,6.84c-1.78,1.21-3.87,2.91-5.98,5.34
	c-4.46,5.12-6.83,10.91-8.05,14.61c-2.13-3.68-2.92-4.92-8-9.24c-3.23-2.75-6.41-7.11-8.93-8.27c-2.62-2.58-8.59-6.67-12.87-9.22
	C171.48,161.37,166.94,159.84,163.41,159.01z"/>
<path class="st4" d="M79.33,140.09c3.85-0.62,9.03-0.81,15.15,0.75c3.88,0.98,7.31,2.45,10.17,3.96c2.51,1.02,5.64,2.64,9.1,5.3
	c4.79,3.69,6.64,2.14,9.08,5.48c0.07-3.61,2.32-4.66,5.37-10.93c1.34-2.75,2.84-4.68,4.12-6.03c2.28-2.45,5.13-5.05,8.62-7.31
	c5.42-3.52,10.53-5.04,14.51-5.71c-3.62,1.34-8.32,3.78-13.12,8.4c-3.08,2.97-5.49,6.16-7.35,9.05c-1.42,1.62-3.02,3.83-4.5,6.82
	c-3.12,6.32-4.15,12.99-4.53,17.2c-2.75-3.59-3.74-4.79-9.37-8.54c-3.58-2.39-7.46-6.53-10.05-7.34c-2.98-2.32-9.4-5.67-13.92-7.66
	C87.36,141.21,82.8,140.36,79.33,140.09z"/>
<path class="st4" d="M254.33,79.33c4.01,1.07,9.13,3.08,14.46,7.02c3.37,2.49,6.1,5.22,8.27,7.76c2.02,1.95,4.41,4.69,6.67,8.49
	c3.13,5.25,5.58,4.68,6.57,8.63c1.56-3.15,4.19-3.13,9.78-7.37c2.45-1.86,4.71-2.93,6.52-3.57c3.24-1.2,7.1-2.29,11.43-2.82
	c6.74-0.82,12.36-0.02,16.52,1.07c-4.09-0.34-9.68-0.17-16.27,1.88c-4.23,1.32-7.91,3.11-10.92,4.88c-2.05,0.83-4.53,2.11-7.22,4.12
	c-5.66,4.25-9.44,9.69-11.56,13.24c-1.19-4.31-1.66-5.78-5.59-11.46c-2.5-3.61-4.55-8.88-6.74-10.68
	c-1.94-3.29-6.8-8.94-10.39-12.59C261.7,83.69,257.61,81.02,254.33,79.33z"/>
</svg>
